<?xml version="1.0" standalone="no"?>
<!DOCTYPE svg PUBLIC "-//W3C//DTD SVG 20010904//EN"
 "http://www.w3.org/TR/2001/REC-SVG-20010904/DTD/svg10.dtd">
<svg version="1.0" xmlns="http://www.w3.org/2000/svg"
 width="1038.000000pt" height="1280.000000pt" viewBox="0 0 1038.000000 1280.000000"
 preserveAspectRatio="xMidYMid meet">
<metadata>
Created by potrace 1.15, written by Peter Selinger 2001-2017
</metadata>
<g transform="translate(0.000000,1280.000000) scale(0.100000,-0.100000)"
fill="#000000" stroke="none">
<path d="M8555 12190 c-22 -5 -57 -16 -77 -24 -24 -10 -67 -16 -121 -16 l-83
0 -41 -45 -40 -45 -119 -1 c-169 0 -209 -9 -243 -49 -25 -30 -31 -33 -66 -27
-46 7 -209 -33 -265 -65 -19 -11 -61 -24 -93 -28 -46 -7 -67 -16 -100 -45 -23
-20 -62 -51 -86 -68 -34 -25 -47 -42 -58 -78 -18 -66 -112 -152 -188 -175 -62
-18 -70 -36 -31 -73 13 -12 32 -37 42 -56 l18 -34 -32 -45 c-36 -49 -40 -74
-16 -83 9 -3 113 2 230 12 l215 19 40 -40 c69 -66 165 -186 217 -270 27 -43
64 -89 82 -102 47 -31 67 -66 75 -126 4 -28 16 -71 28 -96 20 -41 22 -68 27
-325 7 -325 14 -357 98 -443 64 -64 240 -182 273 -182 30 0 38 15 63 117 44
177 175 341 352 440 59 33 100 64 135 105 28 32 67 67 87 77 54 28 157 57 278
81 59 11 113 25 121 31 8 8 13 35 13 78 0 49 7 80 25 119 32 70 32 88 -5 107
-39 20 -57 50 -65 105 -7 52 -2 61 45 85 19 10 47 27 61 37 18 14 52 22 112
27 82 8 117 21 117 44 0 6 -11 38 -24 71 -42 104 -43 129 -8 183 16 27 37 74
47 107 9 32 28 76 42 97 21 32 25 47 20 81 -2 24 -8 50 -12 60 -4 11 5 29 29
56 69 75 48 88 -164 104 -216 15 -371 7 -440 -25 -61 -27 -143 -47 -196 -47
-51 0 -56 26 -14 62 42 35 216 108 334 141 94 27 121 43 111 69 -10 25 -36 29
-261 38 -221 9 -243 12 -309 41 -50 22 -128 30 -180 19z"/>
<path d="M6212 12169 c-18 -5 -65 -30 -105 -54 -41 -25 -111 -55 -162 -71
-155 -46 -200 -80 -155 -116 31 -25 131 -32 383 -24 203 6 228 5 234 -9 6 -16
-53 -86 -89 -106 -10 -5 -70 -23 -134 -39 -149 -38 -164 -57 -99 -129 39 -42
38 -60 -1 -86 -42 -27 -64 -74 -64 -137 0 -65 12 -82 68 -98 78 -21 113 -1 92
55 -26 67 -3 95 90 109 68 11 130 41 130 65 0 11 -4 23 -10 26 -20 12 -9 44
25 72 46 38 113 61 212 72 76 8 87 12 147 57 45 33 72 61 85 90 25 53 59 78
186 142 158 79 174 116 59 139 -178 36 -816 66 -892 42z"/>
<path d="M6056 10899 c-56 -44 -72 -116 -35 -163 30 -38 93 -67 264 -121 221
-70 248 -86 397 -237 71 -71 128 -134 128 -139 0 -14 -38 -27 -101 -34 -80 -9
-94 -22 -94 -87 0 -69 30 -111 113 -162 137 -83 270 -122 331 -96 62 25 54 63
-39 180 -36 47 -74 96 -83 110 -61 89 54 141 157 71 60 -42 109 -41 114 2 7
59 -63 127 -189 184 -71 33 -94 56 -110 115 -13 50 -39 73 -134 119 -45 21
-127 68 -184 105 -121 79 -170 90 -239 55 -52 -27 -65 -26 -129 4 -36 16 -63
38 -85 69 -17 26 -37 46 -44 46 -6 0 -23 -9 -38 -21z"/>
<path d="M5396 10695 c-3 -9 10 -47 29 -85 56 -112 45 -153 -53 -191 -80 -31
-359 -40 -482 -15 -45 10 -95 14 -110 11 -35 -8 -74 -49 -95 -100 -18 -41 -42
-75 -56 -75 -4 0 -28 22 -54 48 -52 56 -83 68 -213 81 -120 13 -152 32 -152
91 0 33 -52 48 -232 66 -382 38 -618 -10 -708 -144 -19 -29 -41 -52 -50 -52
-8 0 -40 28 -70 61 -31 36 -71 69 -94 79 -76 33 -563 137 -731 156 -33 3 -89
18 -125 31 -149 58 -381 17 -531 -93 -27 -20 -69 -42 -94 -49 -72 -22 -85 -32
-85 -68 0 -26 10 -41 62 -87 151 -134 151 -135 144 -187 -5 -38 -2 -53 19 -89
14 -23 25 -49 25 -57 0 -29 -64 -100 -143 -158 -93 -68 -100 -77 -99 -130 1
-55 17 -77 65 -90 23 -6 83 -33 133 -60 50 -27 97 -49 104 -49 6 0 54 -18 104
-41 129 -56 138 -54 202 49 64 105 116 167 157 188 31 17 31 16 57 -15 33 -39
50 -39 95 0 21 19 42 29 53 26 9 -3 103 -36 207 -75 105 -38 246 -89 315 -112
144 -50 213 -93 310 -197 72 -76 113 -141 220 -351 55 -108 85 -154 119 -185
86 -79 171 -170 202 -216 36 -55 36 -101 -2 -196 -23 -58 -24 -69 -24 -320 l0
-261 46 -79 c25 -44 55 -100 67 -125 12 -25 60 -88 108 -140 107 -118 141
-167 174 -250 33 -80 57 -89 88 -36 12 20 28 36 35 36 24 0 80 -70 167 -211
45 -74 122 -195 170 -269 92 -144 121 -195 170 -302 62 -136 238 -254 460
-309 231 -56 424 -160 562 -301 47 -48 93 -88 102 -88 31 0 46 41 46 125 -1
135 -37 188 -141 204 -96 15 -105 49 -65 241 27 131 24 150 -28 150 -39 0 -66
-24 -109 -99 -46 -78 -75 -96 -150 -95 -76 0 -126 24 -184 87 -84 91 -117 194
-117 372 -1 106 2 126 22 167 29 60 87 112 166 149 59 29 64 30 167 23 l106
-6 52 46 c28 25 63 49 76 52 36 9 102 -3 202 -37 129 -43 142 -39 143 45 0 42
30 98 111 206 94 125 134 210 155 330 8 52 21 106 27 119 7 14 37 42 67 62 70
48 121 104 193 212 64 94 114 135 282 225 62 33 91 55 93 69 4 25 -82 143
-105 143 -9 0 -47 -14 -85 -32 -58 -26 -72 -29 -93 -20 -64 30 1 108 150 181
96 47 200 79 377 116 183 39 240 81 206 152 -12 26 -18 28 -78 31 -60 3 -90
14 -90 32 0 5 16 27 35 50 19 23 35 48 35 56 0 8 -21 29 -47 46 -79 53 -159
142 -197 219 -20 40 -36 80 -36 91 0 32 -19 58 -43 58 -12 0 -48 -16 -80 -36
-70 -43 -119 -52 -170 -31 -39 17 -63 57 -87 146 -26 97 -170 205 -265 199
-88 -6 -101 -48 -110 -364 -7 -260 -18 -349 -57 -492 -32 -118 -56 -162 -89
-162 -66 0 -156 98 -199 218 -13 35 -36 76 -52 92 -15 16 -81 56 -145 90 -172
91 -268 158 -355 247 -80 83 -94 111 -84 166 21 113 167 325 274 399 42 29 44
32 38 68 -3 21 -3 46 0 54 14 36 199 118 305 135 87 14 92 21 86 106 -6 85
-26 149 -49 153 -11 2 -42 -29 -92 -92 -49 -62 -83 -96 -96 -96 -20 0 -56 42
-85 100 -24 48 -32 51 -98 44 -78 -8 -98 7 -147 109 -22 45 -52 92 -66 105
-29 25 -79 29 -88 7z m456 -2071 c91 -100 217 -218 255 -237 16 -9 45 -18 66
-22 31 -6 37 -11 37 -33 0 -26 -65 -152 -79 -152 -9 0 -57 52 -101 108 -52 68
-67 58 -110 -68 -42 -124 -45 -130 -70 -130 -13 0 -22 11 -29 38 -24 85 -9
152 51 225 22 26 38 55 36 64 -4 22 -54 32 -168 32 -79 1 -110 10 -110 32 0 4
18 29 40 54 45 52 80 114 80 143 0 21 10 34 21 30 5 -2 41 -39 81 -84z m408
-224 c0 -5 -4 -10 -10 -10 -5 0 -10 5 -10 10 0 6 5 10 10 10 6 0 10 -4 10 -10z
m160 -195 c0 -27 -244 -175 -288 -175 -29 0 -27 17 6 63 21 30 42 43 92 62 36
13 90 32 120 44 66 25 70 25 70 6z"/>
<path d="M9741 10170 c-52 -11 -127 -53 -141 -80 -16 -30 -12 -68 9 -80 56
-29 189 6 254 68 29 28 35 63 14 80 -19 16 -86 22 -136 12z"/>
<path d="M6637 5860 c-14 -11 -37 -40 -51 -65 -15 -25 -31 -45 -36 -45 -6 0
-35 23 -65 50 -30 28 -62 50 -71 50 -8 0 -32 -27 -52 -61 -20 -33 -52 -81 -71
-106 -36 -49 -50 -116 -51 -252 0 -59 -6 -76 -66 -197 -54 -109 -68 -148 -80
-221 -8 -48 -21 -128 -30 -178 l-16 -90 32 -75 c59 -138 69 -165 76 -200 17
-91 135 -339 209 -438 23 -32 73 -81 112 -110 130 -96 149 -150 140 -392 -9
-233 -65 -825 -88 -929 -5 -24 -19 -55 -29 -69 -11 -13 -20 -40 -20 -59 0 -18
-8 -50 -19 -71 -10 -20 -21 -57 -25 -82 -9 -59 9 -259 30 -335 28 -103 28
-102 0 -128 -20 -19 -28 -38 -33 -78 -3 -30 -12 -63 -19 -74 -23 -32 -16 -75
22 -143 l35 -65 -25 -24 c-21 -19 -26 -33 -26 -71 0 -91 38 -194 86 -231 57
-45 79 -24 163 149 68 141 87 213 96 374 7 124 12 141 63 215 35 50 37 58 35
122 -2 61 1 72 24 99 35 42 133 110 223 155 153 76 210 128 210 190 0 30 -21
75 -44 94 -22 18 -20 64 2 84 24 22 27 22 66 -8 18 -14 41 -25 50 -25 48 0
182 104 213 164 8 17 25 42 38 56 32 36 85 193 95 283 13 107 45 164 140 244
41 35 88 71 104 81 15 9 44 28 64 41 20 13 56 29 80 36 23 7 54 21 68 30 52
34 94 174 139 462 29 189 44 237 98 318 57 84 99 188 101 250 1 40 -5 60 -26
92 -37 56 -148 127 -281 179 -62 24 -149 67 -194 94 -45 28 -90 50 -100 50
-10 0 -45 -19 -78 -41 -59 -41 -61 -41 -128 -35 -143 13 -156 42 -90 203 42
103 47 161 18 195 -11 13 -28 39 -39 59 -20 42 -82 79 -159 98 -27 6 -93 38
-149 70 -80 46 -111 71 -152 121 -81 100 -109 118 -217 140 -52 10 -127 31
-168 45 -90 30 -101 31 -134 5z"/>
</g>
</svg>
