<?xml version="1.0" standalone="no"?>
<!DOCTYPE svg PUBLIC "-//W3C//DTD SVG 20010904//EN"
 "http://www.w3.org/TR/2001/REC-SVG-20010904/DTD/svg10.dtd">
<svg version="1.0" xmlns="http://www.w3.org/2000/svg"
 width="1280.000000pt" height="878.000000pt" viewBox="0 0 1280.000000 878.000000"
 preserveAspectRatio="xMidYMid meet">
<g transform="translate(0.000000,878.000000) scale(0.100000,-0.100000)"
fill="#000000" stroke="none">
<path d="M132 8658 c-32 -32 2 -100 97 -193 40 -39 85 -73 101 -78 17 -4 41
-24 57 -45 15 -20 39 -50 54 -67 15 -16 31 -45 36 -64 7 -27 16 -36 54 -50 65
-25 109 -60 109 -88 0 -19 20 -78 61 -181 5 -13 23 -28 39 -34 18 -6 37 -23
47 -42 8 -17 33 -50 54 -73 22 -24 39 -49 39 -57 0 -8 16 -41 35 -73 19 -32
35 -70 35 -85 0 -31 51 -98 148 -192 34 -34 62 -66 62 -72 0 -17 54 -62 140
-118 41 -27 106 -81 143 -120 58 -60 67 -67 62 -43 -4 21 -2 27 12 27 10 0 27
-7 37 -15 25 -19 36 -19 36 -1 0 28 22 28 46 2 14 -14 29 -26 34 -26 14 0 21
69 22 211 0 95 5 140 14 156 20 32 17 50 -10 68 -13 9 -29 29 -36 45 -13 32
-56 47 -106 37 -20 -3 -24 -1 -22 13 2 10 -8 30 -21 44 -15 15 -25 41 -28 70
-7 54 -14 62 -72 69 -54 7 -91 39 -75 65 8 12 8 22 0 35 -9 15 -6 22 18 42 33
26 30 49 -8 66 -20 9 -34 7 -79 -15 -31 -14 -63 -23 -71 -20 -21 8 -10 24 15
24 31 0 59 19 53 34 -3 8 -20 20 -37 27 -25 9 -28 13 -14 16 14 4 16 8 6 19
-16 19 -39 18 -39 -3 -1 -15 -4 -14 -20 6 -11 13 -20 29 -20 36 0 19 -58 65
-80 65 -11 0 -25 10 -31 23 -30 58 -79 87 -79 47 0 -28 -14 -25 -47 11 -15 17
-40 44 -54 59 -15 16 -29 36 -32 44 -3 8 -24 26 -46 40 -21 14 -42 30 -46 36
-3 6 -25 20 -48 31 -46 23 -107 77 -107 94 0 6 -11 22 -25 35 -14 13 -25 29
-25 35 0 6 -13 23 -28 38 -25 24 -37 27 -132 33 -92 6 -111 10 -151 35 -51 32
-60 34 -77 17z"/>
<path d="M4778 8460 c-4 -24 -2 -27 9 -19 15 13 18 49 4 49 -5 0 -11 -13 -13
-30z"/>
<path d="M3152 8457 c-6 -7 -14 -33 -17 -57 -14 -108 -15 -110 -47 -126 -26
-13 -29 -20 -24 -45 4 -23 1 -32 -19 -45 -16 -11 -25 -26 -25 -43 0 -14 -9
-41 -20 -58 -17 -29 -25 -33 -63 -33 -24 0 -52 -7 -63 -15 -27 -21 -45 -19
-103 11 -47 25 -54 26 -95 14 -29 -8 -47 -20 -54 -35 -13 -28 -64 -45 -135
-45 -27 0 -57 -5 -68 -11 -11 -5 -29 -7 -41 -3 -32 10 -125 101 -132 130 -4
13 -10 24 -15 24 -17 0 -71 -74 -71 -97 0 -12 -5 -25 -11 -29 -16 -10 -4 -102
17 -125 12 -14 15 -29 10 -62 -5 -33 -3 -47 9 -57 8 -7 15 -18 15 -25 0 -7 7
-16 16 -19 11 -4 14 -13 10 -31 -7 -28 4 -32 33 -13 33 20 54 -7 47 -59 -3
-24 -2 -51 3 -61 6 -9 15 -45 22 -79 l13 -62 50 -6 c28 -4 77 -2 108 3 32 5
60 7 63 4 3 -3 5 -23 5 -45 0 -36 2 -39 23 -32 12 4 43 8 69 9 38 1 50 6 68
29 20 25 23 26 43 12 12 -8 28 -15 37 -15 9 0 23 -9 33 -20 13 -16 21 -18 42
-10 47 18 92 -13 99 -69 2 -17 6 -34 8 -37 3 -2 43 13 89 34 86 40 129 81 129
122 0 11 7 20 15 20 9 0 15 9 15 25 0 14 10 35 22 47 20 20 20 22 4 34 -12 8
-16 19 -12 32 4 11 2 23 -4 27 -7 4 1 21 20 45 16 21 30 43 30 49 0 6 7 8 16
4 8 -3 25 4 37 15 12 11 34 25 50 31 30 12 35 32 12 51 -12 10 -14 24 -9 59 9
59 42 131 60 131 8 0 17 7 20 15 5 11 11 12 25 4 25 -13 111 -8 116 7 2 6 -30
35 -71 65 -76 55 -97 82 -77 102 6 6 11 17 11 25 0 16 -56 101 -80 122 -10 8
-20 29 -22 47 -4 29 -2 31 34 37 44 7 48 18 13 34 -14 7 -25 20 -25 31 0 27
-18 31 -140 31 -76 0 -111 -4 -118 -13z"/>
<path d="M4630 8361 c0 -5 5 -13 10 -16 6 -3 10 -2 10 4 0 5 -4 13 -10 16 -5
3 -10 2 -10 -4z"/>
<path d="M200 8247 c0 -7 18 -24 41 -36 40 -23 41 -23 30 -3 -11 21 -49 52
-63 52 -5 0 -8 -6 -8 -13z"/>
<path d="M5022 8204 c-25 -17 -29 -52 -7 -60 21 -8 45 14 45 42 0 31 -12 36
-38 18z"/>
<path d="M4931 8128 c-29 -30 -55 -123 -41 -147 5 -11 7 -26 4 -34 -3 -9 2
-29 10 -46 9 -16 16 -46 16 -65 0 -27 9 -46 36 -76 45 -49 54 -46 19 6 -20 30
-25 48 -23 84 3 41 5 45 28 44 14 0 40 -4 58 -8 44 -10 42 9 -4 36 l-36 21 36
34 c43 41 50 83 13 83 -21 0 -57 -27 -57 -43 0 -8 -46 -57 -54 -57 -12 0 -5
30 16 66 17 30 19 40 10 55 -7 11 -10 30 -6 44 8 31 1 32 -25 3z"/>
<path d="M1043 8124 c-8 -21 13 -42 28 -27 13 13 5 43 -11 43 -6 0 -13 -7 -17
-16z"/>
<path d="M4485 8047 c-16 -19 -48 -45 -70 -60 -38 -24 -46 -25 -150 -23 -60 2
-123 8 -138 15 -16 6 -45 11 -66 11 -20 0 -54 9 -76 20 -22 11 -45 20 -53 20
-16 0 -51 -39 -52 -56 0 -16 -24 -24 -41 -14 -15 10 -49 -15 -49 -35 0 -7 -6
-18 -14 -24 -8 -7 -16 -43 -20 -91 -5 -50 -12 -83 -21 -87 -29 -17 -58 -83
-52 -123 3 -23 0 -46 -8 -57 -6 -10 -15 -30 -19 -45 -3 -15 -15 -35 -25 -45
-17 -16 -22 -62 -13 -129 1 -6 21 -10 43 -10 l41 1 13 -50 c13 -49 10 -80 -20
-205 -10 -42 19 -60 85 -53 l55 5 2 165 c2 130 -1 171 -12 194 -14 27 -14 29
7 43 13 8 35 20 50 27 52 23 73 -23 46 -99 -12 -32 -11 -35 19 -60 17 -15 41
-34 53 -42 20 -14 21 -19 12 -53 -8 -30 -7 -40 5 -52 23 -24 62 -19 72 9 10
24 36 36 84 36 46 0 44 26 -7 71 -46 41 -58 73 -35 96 16 16 -11 60 -85 138
-37 37 -66 69 -66 71 0 2 12 4 26 4 14 0 37 9 51 20 14 11 32 20 40 20 8 0 38
23 68 51 48 45 57 50 84 44 38 -8 56 20 26 41 -19 14 -67 9 -73 -8 -2 -4 -21
-8 -43 -8 -22 0 -51 -8 -65 -17 -21 -13 -32 -14 -54 -6 -26 10 -31 8 -64 -28
-27 -31 -42 -39 -69 -39 -29 0 -36 4 -41 24 -3 14 -20 34 -37 47 -42 30 -53
62 -39 120 20 81 24 83 238 86 152 2 194 -1 224 -14 55 -23 162 -10 194 24 56
61 106 134 100 148 -9 23 -28 17 -61 -18z"/>
<path d="M1140 8060 c0 -12 40 -33 48 -25 4 4 -2 13 -12 21 -23 16 -36 18 -36
4z"/>
<path d="M415 8040 c-8 -13 74 -122 86 -114 21 12 8 61 -24 92 -34 33 -51 39
-62 22z"/>
<path d="M1410 7992 c0 -5 7 -13 16 -16 10 -4 14 -1 12 6 -5 15 -28 23 -28 10z"/>
<path d="M1460 7990 c0 -11 40 -34 47 -26 3 3 3 12 0 21 -7 16 -47 21 -47 5z"/>
<path d="M1497 7833 c-15 -15 -7 -42 13 -40 11 1 20 6 20 13 0 15 -25 36 -33
27z"/>
<path d="M5352 7820 c-42 -18 -20 -35 39 -32 59 4 67 8 53 22 -15 15 -67 20
-92 10z"/>
<path d="M1467 7784 c-14 -15 -6 -34 14 -34 14 0 19 5 17 17 -3 18 -20 27 -31
17z"/>
<path d="M4878 7775 c-14 -14 6 -53 29 -58 17 -3 21 -1 14 6 -6 6 -11 21 -11
34 0 21 -19 31 -32 18z"/>
<path d="M5559 7750 c-24 -16 -53 -30 -64 -30 -29 0 -41 -11 -49 -42 -7 -32
-26 -38 -26 -8 0 13 -7 20 -19 20 -35 0 -35 -22 0 -51 25 -22 41 -27 61 -23
34 7 72 -17 88 -56 21 -51 33 -55 164 -55 114 0 121 -1 121 -20 0 -18 -7 -20
-60 -20 -48 0 -64 -4 -81 -21 -18 -18 -30 -21 -71 -17 -62 6 -77 -10 -31 -31
18 -8 49 -29 68 -46 31 -27 33 -32 22 -51 -11 -17 -11 -25 3 -45 8 -13 24 -24
35 -24 25 0 59 45 73 97 14 52 28 57 20 8 -5 -33 -3 -37 26 -48 17 -6 31 -18
31 -25 0 -11 11 -13 50 -10 28 3 53 1 56 -3 3 -5 0 -9 -5 -9 -6 0 -11 -7 -11
-15 0 -21 47 -41 112 -48 34 -3 89 -20 136 -41 44 -20 88 -36 99 -36 10 0 40
-13 66 -30 26 -16 51 -30 56 -30 16 0 49 -49 65 -98 16 -48 71 -112 96 -112 6
0 10 -4 10 -10 0 -5 -11 -10 -25 -10 -31 0 -32 -15 -4 -31 15 -7 18 -13 10
-18 -8 -5 -6 -15 9 -34 20 -25 20 -28 4 -52 -28 -42 -15 -52 57 -44 35 4 72
10 82 14 12 5 17 3 17 -8 0 -8 33 -46 73 -86 l72 -71 98 0 c54 0 108 -5 119
-11 17 -9 31 -6 74 16 66 34 72 65 17 94 -36 18 -27 30 27 37 45 6 48 8 39 26
-9 17 -7 19 18 16 24 -3 28 1 31 24 3 24 6 27 22 18 12 -7 28 -7 45 0 21 8 43
5 103 -14 43 -14 94 -28 115 -31 33 -5 42 -14 85 -80 26 -41 54 -77 64 -80 9
-3 19 -17 22 -30 4 -14 20 -32 36 -40 16 -8 37 -26 46 -40 20 -31 56 -42 173
-55 124 -14 182 -28 196 -46 7 -10 26 -16 49 -16 40 0 57 9 40 20 -6 4 -13 14
-16 23 -4 9 -19 19 -35 22 -16 3 -40 15 -54 26 -24 21 -24 21 -4 33 18 11 14
13 -35 22 -54 11 -55 12 -55 46 l-1 35 -52 3 c-49 3 -53 5 -66 36 -8 19 -19
36 -24 40 -6 3 -13 20 -17 36 -5 22 -16 34 -41 45 -19 8 -34 18 -34 24 0 5
-15 19 -34 30 -21 13 -40 37 -50 61 -26 65 -23 70 37 70 52 0 77 12 77 36 0
22 -57 74 -82 74 -12 0 -48 13 -78 29 -30 16 -74 32 -98 36 -45 7 -64 29 -56
62 10 35 -23 83 -72 104 -24 11 -44 23 -44 28 0 15 -82 61 -109 61 -15 0 -45
13 -67 29 -23 18 -62 33 -97 40 -54 10 -79 19 -232 85 -33 14 -71 26 -85 26
-14 0 -51 9 -83 20 -32 10 -64 17 -71 14 -8 -3 -81 24 -162 60 -81 36 -154 66
-161 66 -8 0 -32 -9 -53 -20 -30 -15 -40 -27 -40 -44 0 -25 -39 -46 -86 -46
-16 0 -29 -10 -39 -30 -9 -16 -20 -30 -24 -30 -5 0 -18 -15 -30 -33 -32 -52
-77 -80 -117 -72 -27 5 -38 14 -54 47 -11 23 -20 52 -20 65 0 13 -4 23 -10 23
-5 0 -10 -6 -10 -14 0 -31 -20 -25 -39 12 -18 35 -22 97 -10 147 1 6 -4 31
-12 58 -13 46 -14 47 -54 47 -25 0 -60 11 -95 30 -71 38 -106 38 -161 0z
m1546 -1130 c3 -5 -1 -10 -10 -10 -9 0 -13 5 -10 10 3 6 8 10 10 10 2 0 7 -4
10 -10z"/>
<path d="M6088 7720 c12 -5 27 -21 32 -35 7 -19 17 -25 40 -25 16 0 30 3 29 8
-1 15 -55 50 -89 56 -28 5 -31 4 -12 -4z"/>
<path d="M627 7683 c-14 -14 -6 -40 24 -76 29 -35 59 -49 59 -27 0 6 -11 33
-25 60 -23 46 -42 60 -58 43z"/>
<path d="M4212 7648 c-16 -16 -15 -38 1 -38 17 0 37 20 37 37 0 16 -22 17 -38
1z"/>
<path d="M4280 7630 c0 -5 5 -10 10 -10 6 0 10 5 10 10 0 6 -4 10 -10 10 -5 0
-10 -4 -10 -10z"/>
<path d="M4880 7611 c0 -21 19 -31 60 -31 38 0 46 15 18 34 -32 23 -78 21 -78
-3z"/>
<path d="M1620 7576 c-5 -13 -14 -26 -21 -28 -24 -8 2 -28 36 -28 37 0 45 -8
60 -60 8 -27 21 -40 55 -57 58 -28 58 -28 62 10 3 27 -2 35 -31 52 -27 16 -37
30 -47 66 -6 26 -14 52 -18 58 -10 16 -36 13 -36 -4 0 -8 -4 -15 -9 -15 -5 0
-11 7 -15 15 -8 22 -25 18 -36 -9z"/>
<path d="M4431 7572 c-18 -35 3 -40 90 -21 60 13 51 24 -28 35 -45 5 -52 4
-62 -14z"/>
<path d="M6121 7581 c27 -17 109 -32 126 -23 23 13 7 19 -72 26 -49 5 -65 4
-54 -3z"/>
<path d="M5250 7565 l-25 -13 29 -12 c36 -13 66 -4 66 21 0 23 -33 25 -70 4z"/>
<path d="M4638 7553 c6 -2 18 -2 25 0 6 3 1 5 -13 5 -14 0 -19 -2 -12 -5z"/>
<path d="M7733 7543 c-29 -11 -10 -23 37 -23 56 0 67 14 19 24 -35 7 -38 7
-56 -1z"/>
<path d="M762 7509 c2 -7 10 -15 17 -17 8 -3 12 1 9 9 -2 7 -10 15 -17 17 -8
3 -12 -1 -9 -9z"/>
<path d="M4661 7504 c0 -11 3 -14 6 -6 3 7 2 16 -1 19 -3 4 -6 -2 -5 -13z"/>
<path d="M8232 7468 c3 -7 17 -15 33 -16 25 -3 27 -2 16 12 -16 19 -55 22 -49
4z"/>
<path d="M822 7441 c2 -7 7 -12 11 -12 12 1 9 15 -3 20 -7 2 -11 -2 -8 -8z"/>
<path d="M1954 7436 c-3 -8 -4 -27 -2 -42 2 -24 8 -28 33 -29 32 0 54 19 55
47 0 32 -75 53 -86 24z"/>
<path d="M5165 7411 c-3 -6 -40 -8 -89 -4 -79 5 -84 5 -99 -18 -21 -30 -22
-46 -2 -29 13 11 19 9 36 -8 23 -25 32 -27 61 -11 16 8 31 8 60 -2 31 -10 44
-10 58 -1 20 12 44 8 70 -13 8 -6 39 -21 68 -33 l52 -21 0 24 c0 13 -5 27 -11
30 -5 4 -14 17 -19 30 -7 19 -19 25 -57 31 -26 4 -57 13 -68 20 -23 16 -51 18
-60 5z"/>
<path d="M8410 7406 c0 -7 121 -86 131 -86 25 0 -11 35 -62 60 -58 30 -69 34
-69 26z"/>
<path d="M860 7395 c0 -18 19 -40 26 -32 4 4 0 15 -9 24 -9 10 -17 13 -17 8z"/>
<path d="M4710 7371 c-36 -10 -37 -44 -3 -71 23 -18 37 -21 76 -17 61 5 75 18
57 51 -20 38 -73 53 -130 37z"/>
<path d="M3206 7324 c-3 -9 -6 -31 -6 -51 0 -53 24 -36 28 20 3 46 -10 63 -22
31z"/>
<path d="M4980 7300 c-8 -5 -11 -12 -7 -16 4 -4 13 -2 19 4 15 15 7 24 -12 12z"/>
<path d="M8616 7235 c7 -19 14 -45 14 -58 0 -14 6 -30 14 -36 12 -10 18 -7 31
13 23 35 12 72 -28 96 -44 27 -48 25 -31 -15z"/>
<path d="M4230 7230 c0 -5 7 -10 16 -10 8 0 12 5 9 10 -3 6 -10 10 -16 10 -5
0 -9 -4 -9 -10z"/>
<path d="M8464 7157 c1 -49 0 -52 -26 -55 -27 -3 -44 -18 -63 -56 -9 -17 -20
-21 -68 -23 -46 -1 -60 2 -71 18 -13 20 -13 20 -19 0 -7 -27 -65 -37 -143 -22
-34 6 -69 8 -79 5 -27 -11 -12 -38 30 -52 22 -7 46 -19 55 -27 8 -7 26 -11 41
-8 16 3 30 -1 38 -11 34 -41 220 5 269 65 17 21 32 29 56 29 41 0 56 16 49 50
-4 22 -1 29 16 35 26 8 37 48 23 80 -9 20 -18 23 -60 23 l-50 1 2 -52z"/>
<path d="M4209 7157 c-8 -17 -17 -23 -30 -20 -30 8 -49 -15 -49 -58 0 -32 3
-39 20 -39 13 0 20 -7 20 -20 0 -11 7 -20 15 -20 8 0 19 9 25 20 6 11 17 20
25 20 17 0 20 16 5 25 -5 3 -10 17 -10 31 0 13 5 24 10 24 15 0 12 36 -5 50
-12 10 -17 8 -26 -13z m-20 -89 c-8 -16 -14 -19 -17 -9 -2 7 2 24 9 39 11 19
15 21 17 9 2 -9 -2 -26 -9 -39z"/>
<path d="M4060 7056 c0 -8 5 -18 10 -21 6 -3 10 3 10 14 0 12 -4 21 -10 21 -5
0 -10 -6 -10 -14z"/>
<path d="M7790 7050 c0 -5 5 -10 11 -10 5 0 7 5 4 10 -3 6 -8 10 -11 10 -2 0
-4 -4 -4 -10z"/>
<path d="M5912 7000 c-25 -41 -3 -110 32 -97 11 4 16 18 16 46 0 69 -22 93
-48 51z"/>
<path d="M7900 7011 c0 -13 26 -32 33 -24 8 7 -11 33 -24 33 -5 0 -9 -4 -9 -9z"/>
<path d="M5661 6984 c0 -11 3 -14 6 -6 3 7 2 16 -1 19 -3 4 -6 -2 -5 -13z"/>
<path d="M3852 6935 c0 -16 2 -22 5 -12 2 9 2 23 0 30 -3 6 -5 -1 -5 -18z"/>
<path d="M1701 6937 c-6 -6 -11 -19 -11 -29 0 -10 -9 -26 -20 -35 -25 -22 -28
-58 -3 -49 9 4 38 -1 65 -10 43 -14 48 -19 46 -42 -3 -26 -1 -27 62 -33 36 -3
96 -18 134 -33 63 -26 72 -27 113 -16 59 17 123 8 229 -33 88 -34 177 -52 244
-49 19 1 57 -3 83 -9 36 -9 59 -8 91 1 38 10 48 9 83 -8 21 -11 57 -24 78 -27
22 -4 49 -12 59 -17 16 -9 18 -8 10 8 -5 11 -8 42 -7 70 2 48 0 53 -25 63 -18
7 -47 8 -87 2 -85 -12 -131 10 -123 61 3 20 8 22 54 19 31 -1 67 4 90 14 39
17 39 17 14 27 -32 13 -145 4 -165 -12 -12 -10 -21 -10 -38 -2 -37 19 -140 46
-168 44 -15 -1 -33 6 -44 18 -26 29 -43 25 -67 -16 l-21 -36 -121 4 c-67 3
-129 8 -138 12 -9 4 -26 23 -37 42 -18 30 -25 34 -63 34 -27 0 -56 8 -78 22
-29 19 -51 22 -132 24 -57 1 -101 -3 -107 -9z"/>
<path d="M5870 6891 c0 -16 -3 -36 -6 -45 -9 -23 24 -32 44 -12 15 15 15 19
-2 51 -23 43 -36 45 -36 6z"/>
<path d="M5455 6727 c-25 -44 -32 -77 -16 -77 18 0 71 71 71 95 0 39 -26 30
-55 -18z"/>
<path d="M6490 6727 c-30 -15 -90 -92 -90 -116 0 -15 8 -18 50 -17 43 1 54 6
90 41 27 26 40 48 40 66 0 39 -41 51 -90 26z"/>
<path d="M4737 6703 c-4 -3 -23 -9 -44 -12 -57 -9 -54 -30 4 -24 61 7 92 21
72 34 -17 11 -24 11 -32 2z"/>
<path d="M5215 6669 c-10 -15 3 -25 16 -12 7 7 7 13 1 17 -6 3 -14 1 -17 -5z"/>
<path d="M2970 6618 c0 -4 18 -17 39 -28 22 -11 44 -27 49 -36 8 -15 13 -14
46 11 34 26 36 29 20 46 -13 15 -30 18 -85 16 -38 -1 -69 -5 -69 -9z"/>
<path d="M3460 6616 c0 -7 11 -21 25 -30 14 -9 25 -21 25 -26 0 -18 -57 -10
-81 11 -18 16 -32 19 -58 15 -38 -6 -56 -20 -66 -53 -5 -18 -1 -25 17 -34 19
-8 42 -6 104 11 43 12 107 23 141 24 34 0 64 4 68 8 4 4 4 19 1 34 -6 21 -11
25 -31 20 -13 -3 -26 -2 -29 3 -3 4 -16 6 -29 4 -14 -3 -29 2 -36 11 -17 20
-51 21 -51 2z"/>
<path d="M4440 6615 c-19 -23 -2 -36 38 -29 46 8 62 21 42 34 -23 14 -66 12
-80 -5z"/>
<path d="M3216 6588 c-9 -12 -16 -28 -16 -35 0 -7 -5 -13 -11 -13 -5 0 -7 -4
-4 -10 9 -15 85 -12 91 3 2 7 6 27 7 43 2 25 -2 29 -25 32 -18 2 -31 -4 -42
-20z"/>
<path d="M3820 6604 c-44 -16 -60 -29 -60 -50 0 -20 6 -22 78 -28 119 -10 194
-6 252 12 19 6 52 13 72 17 41 6 56 21 39 38 -8 8 -19 5 -42 -12 -29 -22 -35
-22 -70 -11 -30 10 -45 10 -64 2 -19 -9 -33 -7 -68 8 -47 21 -113 32 -137 24z"/>
<path d="M4308 6597 c-16 -6 -28 -14 -28 -19 0 -13 13 -9 45 12 33 22 26 24
-17 7z"/>
<path d="M4387 6603 c-10 -9 -9 -23 2 -23 5 0 11 7 15 15 5 15 -5 20 -17 8z"/>
<path d="M4676 6574 c-115 -13 -120 -15 -150 -47 -19 -21 -55 -43 -94 -57 -71
-26 -113 -67 -111 -108 1 -15 0 -34 -2 -42 -5 -19 20 -17 83 5 31 11 69 39
110 79 54 53 73 65 128 80 69 18 210 84 210 98 0 10 -27 9 -174 -8z"/>
<path d="M8620 6501 c0 -11 31 -24 39 -16 3 3 -1 10 -9 15 -19 12 -30 12 -30
1z"/>
<path d="M8252 6458 c2 -6 10 -14 16 -16 7 -2 10 2 6 12 -7 18 -28 22 -22 4z"/>
<path d="M3676 6441 c-22 -3 -41 -12 -44 -18 -4 -14 37 -33 73 -33 13 0 44
-18 70 -40 25 -22 55 -40 66 -40 27 0 59 18 59 33 0 13 -43 57 -55 57 -4 0
-20 11 -37 25 -30 26 -53 28 -132 16z"/>
<path d="M8306 6443 c-10 -10 15 -33 36 -33 10 0 16 4 13 10 -9 15 -41 30 -49
23z"/>
<path d="M8380 6350 c19 -13 30 -13 30 0 0 6 -10 10 -22 10 -19 0 -20 -2 -8
-10z"/>
<path d="M4227 6254 c-30 -16 -29 -35 2 -27 26 7 60 43 40 43 -8 -1 -27 -8
-42 -16z"/>
<path d="M7085 6226 c-14 -14 -25 -34 -25 -45 0 -42 -26 -116 -47 -138 -27
-26 -30 -58 -7 -67 15 -6 15 -8 2 -24 -20 -22 -31 -107 -27 -212 2 -47 3 -98
2 -115 0 -53 -51 -228 -87 -300 -33 -65 -40 -72 -93 -97 -56 -25 -59 -26 -73
-8 -8 10 -34 27 -57 39 -24 12 -49 34 -58 51 -9 18 -26 32 -43 36 -82 18 -101
26 -127 55 -28 29 -121 78 -175 92 -14 4 -44 24 -66 46 -23 21 -62 51 -88 66
-26 15 -46 34 -46 43 1 10 14 35 30 57 45 62 53 84 39 118 -11 25 -9 31 9 50
12 12 34 22 49 23 19 0 29 7 32 20 2 10 15 37 30 59 30 44 30 65 1 65 -10 0
-21 7 -24 15 -10 27 -44 1 -39 -30 4 -20 1 -25 -16 -25 -12 0 -21 6 -21 14 0
8 -10 16 -22 18 -16 2 -22 9 -20 21 2 9 -2 17 -8 17 -5 0 -10 -3 -10 -8 0 -4
-18 -13 -41 -20 -34 -11 -43 -10 -62 3 -12 8 -40 15 -62 15 -22 0 -54 9 -73
20 -17 11 -42 19 -55 18 -28 -2 -97 28 -97 41 0 6 -12 11 -26 11 -15 0 -32 7
-38 15 -14 20 -96 29 -96 11 0 -22 23 -36 61 -36 40 0 49 -11 49 -61 0 -19 -5
-29 -15 -29 -8 0 -15 -6 -15 -14 0 -10 -19 -13 -82 -11 -46 1 -92 5 -103 9
-16 6 -24 1 -35 -18 -9 -19 -19 -25 -32 -20 -12 3 -18 0 -18 -10 0 -9 -6 -16
-13 -16 -21 0 -57 -56 -57 -89 0 -24 -5 -32 -24 -37 -17 -4 -26 -15 -30 -38
-4 -18 -17 -43 -31 -56 -32 -30 -32 -44 0 -58 24 -11 36 -52 15 -52 -5 0 -10
-7 -10 -15 0 -16 -12 -20 -24 -8 -8 9 -94 32 -118 33 -21 0 -58 -34 -58 -54 0
-19 -19 -31 -31 -19 -5 5 -4 24 3 46 l12 38 -59 59 c-33 33 -67 60 -77 60 -9
0 -20 5 -23 10 -12 20 -43 10 -49 -16 -5 -20 -12 -25 -26 -21 -24 6 -70 -13
-70 -29 0 -21 -26 -34 -78 -37 -41 -3 -55 -10 -76 -33 -29 -34 -32 -47 -11
-64 23 -19 18 -30 -16 -30 -17 0 -39 -5 -50 -10 -23 -13 -25 -48 -4 -56 19 -8
19 -33 1 -40 -9 -3 -12 -12 -9 -21 5 -14 -1 -15 -42 -9 -26 4 -53 10 -59 12
-17 7 -17 -66 0 -90 19 -27 18 -36 -5 -36 -10 0 -21 -9 -24 -20 -8 -30 -21
-24 -41 17 -9 20 -27 48 -39 62 l-21 26 -53 -51 c-49 -47 -53 -55 -53 -97 0
-25 5 -49 10 -52 22 -13 9 -46 -25 -66 -23 -14 -50 -46 -76 -90 -24 -42 -55
-79 -77 -94 -47 -31 -182 -66 -245 -64 -39 2 -52 -2 -75 -24 -21 -20 -38 -27
-68 -27 -27 0 -51 -8 -74 -25 -29 -22 -44 -25 -114 -25 -90 0 -124 -14 -214
-88 -26 -21 -68 -46 -93 -56 -54 -19 -72 -37 -94 -90 -22 -53 -50 -46 -50 12
0 23 -4 42 -8 42 -4 0 -19 -23 -32 -51 -18 -39 -21 -57 -14 -76 15 -39 10 -86
-11 -118 -39 -58 -44 -100 -18 -163 12 -32 42 -86 65 -121 33 -49 41 -69 37
-90 -10 -39 -23 -49 -38 -28 -19 25 -40 23 -26 -3 6 -11 8 -25 5 -30 -11 -18
-34 -10 -47 17 -7 14 -19 28 -25 31 -25 7 -13 -20 29 -68 56 -66 88 -127 88
-171 0 -25 9 -48 30 -74 16 -20 32 -46 36 -58 4 -12 16 -35 28 -52 16 -22 22
-51 27 -115 6 -80 10 -94 63 -195 55 -105 57 -112 52 -165 -4 -30 -6 -78 -6
-106 1 -62 -35 -110 -75 -100 -31 8 -38 -6 -30 -54 5 -31 11 -40 26 -40 25 0
71 -24 90 -46 7 -9 34 -26 59 -37 59 -27 231 -40 269 -21 14 7 33 16 41 19 17
6 42 21 81 48 14 10 33 15 42 11 9 -3 31 9 58 33 46 41 63 45 269 59 79 5 98
4 108 -9 10 -12 20 -13 45 -6 41 12 94 12 115 0 32 -17 103 28 132 84 23 45
30 51 85 70 33 11 92 37 131 57 66 33 77 36 160 35 111 0 185 15 294 61 81 33
92 35 254 43 159 8 171 7 210 -13 22 -11 49 -27 58 -35 13 -12 29 -14 59 -9
31 5 48 2 68 -11 14 -10 51 -20 81 -23 45 -4 57 -9 65 -27 5 -13 17 -23 27
-23 22 0 34 -20 17 -30 -22 -14 5 -60 35 -60 27 0 56 -24 56 -46 0 -8 15 -31
34 -51 38 -44 54 -92 34 -105 -17 -11 33 -54 71 -61 32 -6 37 -2 21 18 -11 14
-6 23 36 67 53 54 115 98 138 98 8 0 28 23 45 50 17 28 35 50 41 50 5 0 10 12
10 28 l1 27 19 -24 c22 -25 27 -61 9 -61 -7 0 -9 -10 -5 -26 5 -20 0 -33 -24
-60 -33 -38 -33 -39 -30 -106 2 -49 -14 -68 -58 -68 -18 0 -38 -27 -28 -37 3
-3 21 0 40 7 20 6 40 8 46 5 18 -11 39 14 46 54 4 20 13 49 22 65 14 29 15 29
29 10 9 -10 24 -39 35 -62 22 -49 18 -82 -13 -113 -11 -11 -18 -23 -15 -26 9
-9 116 17 116 28 0 5 11 9 25 9 20 0 25 -5 25 -24 0 -14 10 -37 23 -53 33 -40
51 -104 43 -153 -6 -40 -5 -42 58 -105 49 -49 72 -65 93 -65 15 0 43 -9 60
-20 19 -11 48 -19 70 -18 64 2 136 -14 195 -43 72 -36 86 -36 134 2 22 17 51
36 66 41 16 6 25 15 22 23 -6 16 25 35 56 35 28 0 36 -27 15 -50 -24 -26 -13
-36 17 -16 31 22 48 20 48 -4 0 -13 10 -24 27 -31 14 -5 46 -23 70 -39 42 -28
63 -31 63 -9 0 5 -9 9 -21 9 -36 0 -15 25 27 31 46 6 74 20 129 64 63 51 83
57 195 65 69 5 118 14 144 26 37 18 38 20 32 61 -4 31 0 58 14 93 11 28 20 62
20 76 0 31 30 90 64 127 14 15 29 46 32 68 4 22 20 57 35 79 16 22 29 44 29
49 0 19 50 108 73 132 14 13 45 39 71 58 32 23 46 40 46 57 0 13 16 52 35 88
28 50 36 78 39 127 3 35 14 91 25 123 12 33 21 69 21 80 0 12 9 36 20 54 26
42 25 91 -1 142 -18 34 -19 43 -8 58 7 9 9 14 4 9 -4 -4 -18 2 -31 14 -20 19
-21 26 -16 124 3 72 1 109 -7 119 -9 11 -6 27 15 75 20 47 24 65 16 73 -9 9
-12 8 -12 -5 0 -10 -7 -28 -16 -42 -13 -21 -19 -22 -44 -13 -16 5 -32 19 -36
30 -3 12 -25 39 -48 62 -23 23 -48 51 -56 64 -8 13 -22 24 -30 26 -21 4 -80
39 -80 49 0 4 5 7 11 7 5 0 8 4 4 10 -3 5 -12 7 -19 4 -23 -9 -46 36 -46 91 0
59 -10 78 -34 69 -11 -4 -27 3 -47 22 -30 28 -30 28 -36 6 -3 -12 -11 -22 -18
-22 -18 0 -55 48 -55 71 0 37 -42 125 -77 161 -30 31 -34 40 -24 52 11 13 8
20 -15 41 -15 14 -35 25 -45 25 -10 0 -20 4 -23 9 -3 5 -21 12 -40 15 -34 6
-58 27 -69 59 -4 10 -17 17 -34 17 -37 0 -128 43 -136 65 -4 9 -7 25 -7 35 0
9 -7 24 -16 31 -24 19 -33 51 -23 78 16 41 -18 151 -57 187 -25 24 -34 40 -35
65 -1 56 -23 142 -47 179 -12 19 -22 41 -22 48 0 7 -11 17 -24 23 -13 6 -29
22 -35 35 l-10 24 -35 -21 c-20 -11 -44 -18 -54 -15 -19 6 -54 95 -51 131 4
39 -22 134 -44 162 -12 15 -20 36 -19 46 2 11 -6 28 -17 38 -12 12 -21 32 -21
50 0 36 -21 89 -43 107 -14 12 -20 10 -42 -12z"/>
<path d="M5430 6168 c-19 -6 -50 -7 -67 -5 -18 3 -33 2 -33 -4 0 -5 -6 -9 -12
-9 -7 0 -18 -11 -25 -25 -11 -24 -10 -25 29 -25 21 0 48 -5 59 -11 17 -9 28
-6 60 15 23 16 39 34 39 46 0 26 -9 29 -50 18z"/>
<path d="M8738 6133 c7 -3 16 -2 19 1 4 3 -2 6 -13 5 -11 0 -14 -3 -6 -6z"/>
<path d="M6224 5775 c-9 -23 3 -45 24 -45 14 0 19 7 19 30 0 23 -5 30 -19 30
-10 0 -21 -7 -24 -15z"/>
<path d="M6644 5395 c-16 -12 -16 -14 -3 -15 9 0 22 7 29 15 16 19 0 19 -26 0z"/>
<path d="M2740 4053 c0 -4 5 -15 10 -23 8 -13 10 -13 10 2 0 9 -4 20 -10 23
-5 3 -10 3 -10 -2z"/>
<path d="M2820 4026 c0 -31 25 -53 34 -31 7 18 -10 55 -24 55 -6 0 -10 -11
-10 -24z"/>
<path d="M11372 2586 c2 -21 11 -34 26 -41 12 -5 22 -17 22 -25 0 -9 18 -34
40 -55 31 -30 43 -36 52 -27 7 7 20 12 30 12 20 0 24 -30 8 -61 -8 -14 -5 -29
11 -61 12 -24 27 -50 34 -58 25 -30 40 -126 20 -134 -7 -2 -15 -22 -19 -44 -6
-43 -43 -82 -76 -82 -10 0 -28 -8 -41 -19 -20 -16 -21 -21 -10 -35 7 -9 19
-16 25 -16 28 -1 162 -77 172 -99 16 -32 2 -77 -36 -116 -37 -38 -38 -53 -2
-61 15 -4 35 -13 44 -21 27 -24 80 9 156 99 95 113 113 145 106 190 -8 50 25
73 96 66 l50 -5 0 34 c0 26 6 36 25 45 17 8 25 19 25 37 0 14 7 39 15 55 22
42 13 56 -36 56 -32 0 -49 -7 -76 -30 -41 -37 -58 -37 -151 -4 -77 28 -92 44
-106 110 -7 33 -51 82 -63 71 -3 -4 -2 -23 4 -42 14 -43 0 -56 -28 -26 -11 12
-26 21 -33 21 -24 0 -59 47 -53 71 4 15 -2 32 -19 52 -20 23 -23 36 -18 63 5
30 3 35 -22 46 -16 6 -36 21 -45 32 -12 14 -35 22 -73 26 l-57 6 3 -30z"/>
<path d="M6293 2557 c-52 -15 -60 -23 -36 -35 30 -16 193 0 193 19 0 5 -13 9
-29 9 -17 0 -33 5 -36 10 -8 13 -38 11 -92 -3z"/>
<path d="M7327 1974 c-4 -4 -7 -18 -7 -31 0 -17 5 -24 17 -21 9 2 18 8 20 13
5 15 -21 48 -30 39z"/>
<path d="M7907 1953 c-8 -7 41 -63 55 -63 17 0 7 40 -14 54 -25 18 -32 19 -41
9z"/>
<path d="M7958 1863 c7 -3 16 -2 19 1 4 3 -2 6 -13 5 -11 0 -14 -3 -6 -6z"/>
<path d="M7436 1794 c-9 -23 24 -90 79 -163 26 -34 44 -65 41 -69 -4 -3 -11 0
-16 8 -5 8 -12 11 -17 7 -12 -13 27 -74 77 -121 37 -35 59 -46 105 -56 53 -11
60 -11 72 6 7 10 13 24 13 31 0 7 6 13 13 13 8 0 24 11 37 25 13 14 38 29 54
33 23 6 31 14 32 33 1 13 6 37 13 53 10 26 13 27 24 12 10 -13 12 2 12 80 0
82 -3 98 -19 109 -16 12 -26 11 -70 -5 -28 -11 -66 -20 -83 -20 -18 0 -33 -4
-33 -8 0 -17 -129 -5 -214 21 -103 31 -112 32 -120 11z"/>
<path d="M11253 1760 c-18 -11 -33 -23 -34 -27 -6 -81 -18 -102 -69 -123 -21
-9 -34 -26 -50 -66 -22 -54 -87 -124 -114 -124 -8 0 -34 -15 -59 -34 -53 -40
-205 -116 -233 -116 -11 0 -63 -34 -115 -75 -78 -62 -94 -80 -94 -103 0 -21
-4 -27 -20 -25 -11 1 -27 0 -35 -3 -13 -5 -12 -7 2 -15 23 -13 11 -42 -14 -36
-30 8 -34 -21 -7 -50 22 -23 29 -25 85 -19 48 5 64 3 74 -9 7 -8 28 -15 48
-15 20 0 40 -7 46 -16 9 -12 31 -16 87 -17 83 -2 117 11 182 69 20 19 43 34
51 34 8 0 17 11 20 24 3 13 21 46 39 74 19 27 37 67 40 88 8 49 27 66 117 104
58 24 83 30 112 25 41 -7 54 9 17 20 -16 5 -19 14 -17 38 2 26 10 35 40 49 20
10 42 27 49 39 6 12 38 50 70 85 55 60 57 64 46 93 -9 25 -8 33 7 50 17 19 17
21 2 27 -9 4 -24 -1 -35 -10 -13 -12 -20 -13 -29 -4 -9 9 -21 8 -51 -2 -45
-14 -61 -8 -61 24 0 15 -9 27 -25 34 -14 6 -25 16 -25 22 0 15 -11 12 -47 -10z"/>
<path d="M7903 1483 c-18 -6 -16 -33 1 -33 19 0 31 19 20 30 -5 4 -15 5 -21 3z"/>
<path d="M11123 863 c-7 -3 -13 -12 -13 -22 0 -9 -6 -23 -12 -30 -11 -11 -6
-13 26 -8 46 7 59 18 51 39 -7 17 -33 27 -52 21z"/>
<path d="M10862 288 c-14 -14 -16 -38 -4 -38 12 0 32 23 32 37 0 16 -12 17
-28 1z"/>
</g>
</svg>
